<mxfile host="app.diagrams.net" modified="2024-02-07T06:33:22.490Z" agent="Mozilla/5.0 (Windows NT 10.0; Win64; x64) AppleWebKit/537.36 (KHTML, like Gecko) Chrome/116.0.0.0 Safari/537.36" etag="vg15EerP0jj0BwhONcxC" version="23.0.2" type="github">
  <diagram name="第 1 页" id="AMbzhqfFkD4l3YyqTUbq">
    <mxGraphModel dx="1050" dy="542" grid="1" gridSize="10" guides="1" tooltips="1" connect="1" arrows="1" fold="1" page="1" pageScale="1" pageWidth="827" pageHeight="1169" math="0" shadow="0">
      <root>
        <mxCell id="0" />
        <mxCell id="1" parent="0" />
        <mxCell id="0BEzw5he5oUD5oCdYzI9-3" style="edgeStyle=orthogonalEdgeStyle;rounded=0;orthogonalLoop=1;jettySize=auto;html=1;entryX=0;entryY=0.5;entryDx=0;entryDy=0;" edge="1" parent="1" source="0BEzw5he5oUD5oCdYzI9-1" target="0BEzw5he5oUD5oCdYzI9-2">
          <mxGeometry relative="1" as="geometry" />
        </mxCell>
        <mxCell id="0BEzw5he5oUD5oCdYzI9-1" value="媒体" style="rounded=1;whiteSpace=wrap;html=1;" vertex="1" parent="1">
          <mxGeometry x="90" y="220" width="120" height="60" as="geometry" />
        </mxCell>
        <mxCell id="0BEzw5he5oUD5oCdYzI9-7" value="" style="edgeStyle=orthogonalEdgeStyle;rounded=0;orthogonalLoop=1;jettySize=auto;html=1;" edge="1" parent="1" source="0BEzw5he5oUD5oCdYzI9-2" target="0BEzw5he5oUD5oCdYzI9-6">
          <mxGeometry relative="1" as="geometry">
            <Array as="points">
              <mxPoint x="520" y="250" />
              <mxPoint x="520" y="130" />
            </Array>
          </mxGeometry>
        </mxCell>
        <mxCell id="0BEzw5he5oUD5oCdYzI9-10" value="" style="edgeStyle=orthogonalEdgeStyle;rounded=0;orthogonalLoop=1;jettySize=auto;html=1;" edge="1" parent="1" source="0BEzw5he5oUD5oCdYzI9-2" target="0BEzw5he5oUD5oCdYzI9-9">
          <mxGeometry relative="1" as="geometry">
            <Array as="points">
              <mxPoint x="520" y="250" />
              <mxPoint x="520" y="340" />
            </Array>
          </mxGeometry>
        </mxCell>
        <mxCell id="0BEzw5he5oUD5oCdYzI9-2" value="媒体引擎" style="rounded=1;whiteSpace=wrap;html=1;" vertex="1" parent="1">
          <mxGeometry x="330" y="220" width="120" height="60" as="geometry" />
        </mxCell>
        <mxCell id="0BEzw5he5oUD5oCdYzI9-13" value="" style="edgeStyle=orthogonalEdgeStyle;rounded=0;orthogonalLoop=1;jettySize=auto;html=1;" edge="1" parent="1" source="0BEzw5he5oUD5oCdYzI9-6" target="0BEzw5he5oUD5oCdYzI9-12">
          <mxGeometry relative="1" as="geometry" />
        </mxCell>
        <mxCell id="0BEzw5he5oUD5oCdYzI9-6" value="拍卖引擎" style="whiteSpace=wrap;html=1;rounded=1;" vertex="1" parent="1">
          <mxGeometry x="600" y="100" width="120" height="60" as="geometry" />
        </mxCell>
        <mxCell id="0BEzw5he5oUD5oCdYzI9-9" value="自然量DSP" style="rounded=1;whiteSpace=wrap;html=1;" vertex="1" parent="1">
          <mxGeometry x="600" y="310" width="120" height="60" as="geometry" />
        </mxCell>
        <mxCell id="0BEzw5he5oUD5oCdYzI9-12" value="" style="whiteSpace=wrap;html=1;rounded=1;" vertex="1" parent="1">
          <mxGeometry x="800" y="100" width="120" height="60" as="geometry" />
        </mxCell>
      </root>
    </mxGraphModel>
  </diagram>
</mxfile>
